<svg width="32" height="32" viewBox="0 0 32 32" fill="none" xmlns="http://www.w3.org/2000/svg">
  <circle cx="16" cy="16" r="15.5" fill="#F7931A" stroke="#F7931A"/>
  <path d="M22.2366 14.3004C22.5076 12.1465 20.851 11.0064 18.5805 10.2589L19.2598 7.5753L17.534 7.1395L16.8725 9.7493C16.4005 9.6334 15.9165 9.5252 15.4352 9.4177L16.1013 6.7835L14.3769 6.3477L13.697 9.0313C13.3057 8.9435 12.9227 8.8565 12.5518 8.7655L12.5539 8.7568L10.1257 8.1521L9.66108 10.0051C9.66108 10.0051 10.921 10.2932 10.8969 10.3111C11.6009 10.4819 11.7334 10.9436 11.7124 11.3157L10.9329 14.3742C10.9815 14.3864 11.044 14.4046 11.1121 14.4336C11.0553 14.4193 10.9942 14.4037 10.9308 14.3885L9.84519 18.5979C9.75646 18.8127 9.53648 19.1373 9.04336 19.0213C9.05864 19.0461 7.80997 18.7152 7.80997 18.7152L7 20.6823L9.29702 21.255C9.73148 21.3633 10.1578 21.4767 10.5775 21.5826L9.88934 24.2976L11.613 24.7334L12.2929 21.9498C12.7822 22.0812 13.2587 22.2015 13.7259 22.3157L13.048 25.0868L14.7738 25.5226L15.462 22.8109C18.4592 23.3678 20.7035 23.1723 21.6781 20.4633C22.4607 18.2936 21.6959 17.0649 20.1254 16.2723C21.2743 16.0219 22.0435 15.2935 22.2366 14.3004ZM18.5039 19.1763C17.9506 21.346 14.5177 20.3151 13.379 20.0179L14.2929 16.4146C15.4316 16.7131 19.084 16.9121 18.5039 19.1763ZM19.0579 14.2749C18.5538 16.2584 15.6952 15.3751 14.7579 15.1288L15.5845 11.885C16.5218 12.1313 19.5848 12.2057 19.0579 14.2749Z" fill="white"/>
</svg>
