<svg width="200" height="40" viewBox="0 0 200 40" fill="none" xmlns="http://www.w3.org/2000/svg">
  <rect width="200" height="40" rx="4" fill="#0E1117"/>
  <circle cx="20" cy="20" r="15" fill="#F7931A"/>
  <path d="M26.2366 18.3004C26.5076 16.1465 24.851 15.0064 22.5805 14.2589L23.2598 11.5753L21.534 11.1395L20.8725 13.7493C20.4005 13.6334 19.9165 13.5252 19.4352 13.4177L20.1013 10.7835L18.3769 10.3477L17.697 13.0313C17.3057 12.9435 16.9227 12.8565 16.5518 12.7655L16.5539 12.7568L14.1257 12.1521L13.6611 14.0051C13.6611 14.0051 14.921 14.2932 14.8969 14.3111C15.6009 14.4819 15.7334 14.9436 15.7124 15.3157L14.9329 18.3742C14.9815 18.3864 15.044 18.4046 15.1121 18.4336C15.0553 18.4193 14.9942 18.4037 14.9308 18.3885L13.8452 22.5979C13.7565 22.8127 13.5365 23.1373 13.0434 23.0213C13.0586 23.0461 11.81 22.7152 11.81 22.7152L11 24.6823L13.297 25.255C13.7315 25.3633 14.1578 25.4767 14.5775 25.5826L13.8893 28.2976L15.613 28.7334L16.2929 25.9498C16.7822 26.0812 17.2587 26.2015 17.7259 26.3157L17.048 29.0868L18.7738 29.5226L19.462 26.8109C22.4592 27.3678 24.7035 27.1723 25.6781 24.4633C26.4607 22.2936 25.6959 21.0649 24.1254 20.2723C25.2743 20.0219 26.0435 19.2935 26.2366 18.3004ZM22.5039 23.1763C21.9506 25.346 18.5177 24.3151 17.379 24.0179L18.2929 20.4146C19.4316 20.7131 23.084 20.9121 22.5039 23.1763ZM23.0579 18.2749C22.5538 20.2584 19.6952 19.3751 18.7579 19.1288L19.5845 15.885C20.5218 16.1313 23.5848 16.2057 23.0579 18.2749Z" fill="white"/>
  <path d="M42 18.384V21H50.544V18.384H47.856V15.12H50.544V12.504H47.856V10.176H50.544V7.56H42V18.384ZM55.1986 21.216C57.5746 21.216 59.2306 19.944 59.2306 18C59.2306 16.2 57.8386 15.288 56.1106 14.88C57.5506 14.472 58.8146 13.536 58.8146 11.976C58.8146 10.128 57.1826 8.88 54.9266 8.88C52.5746 8.88 50.7986 10.128 50.7986 12.096C50.7986 13.728 52.1666 14.616 53.8466 15.048C52.3826 15.48 51.0706 16.416 51.0706 18.024C51.0706 19.992 52.8226 21.216 55.1986 21.216ZM54.9746 12.648C54.9746 11.856 55.4626 11.4 56.0466 11.4C56.6306 11.4 57.1186 11.856 57.1186 12.648C57.1186 13.44 56.6306 13.896 56.0466 13.896C55.4626 13.896 54.9746 13.44 54.9746 12.648ZM55.1986 18.744C54.4946 18.744 53.9106 18.192 53.9106 17.352C53.9106 16.536 54.4946 15.984 55.1986 15.984C55.9026 15.984 56.4866 16.536 56.4866 17.352C56.4866 18.192 55.9026 18.744 55.1986 18.744ZM66.047 21.216C69.383 21.216 71.255 18.6 71.255 15.048C71.255 11.496 69.383 8.88 66.047 8.88C62.711 8.88 60.839 11.496 60.839 15.048C60.839 18.6 62.711 21.216 66.047 21.216ZM66.047 18.432C64.879 18.432 64.151 17.064 64.151 15.048C64.151 13.032 64.879 11.664 66.047 11.664C67.215 11.664 67.943 13.032 67.943 15.048C67.943 17.064 67.215 18.432 66.047 18.432ZM73.0055 18.384V21H81.5495V18.384H78.8615V15.12H81.5495V12.504H78.8615V10.176H81.5495V7.56H73.0055V18.384ZM86.8641 21.216C89.0721 21.216 90.1921 19.872 90.1921 18.192C90.1921 16.752 89.4161 15.936 87.9041 15.24C86.5121 14.616 86.1441 14.472 86.1441 13.944C86.1441 13.536 86.4881 13.248 86.9521 13.248C87.5121 13.248 88.1681 13.464 88.8721 13.92L90.0641 11.616C89.0481 10.944 87.8801 10.608 86.8161 10.608C84.8321 10.608 83.5441 11.928 83.5441 13.608C83.5441 14.904 84.3201 15.768 85.8561 16.464C87.1761 17.064 87.5681 17.256 87.5681 17.784C87.5681 18.216 87.1761 18.528 86.6881 18.528C85.9601 18.528 85.1361 18.168 84.3841 17.592L83.0161 19.776C84.1121 20.616 85.4321 21.216 86.8641 21.216ZM96.0312 21.216C98.2392 21.216 99.3592 19.872 99.3592 18.192C99.3592 16.752 98.5832 15.936 97.0712 15.24C95.6792 14.616 95.3112 14.472 95.3112 13.944C95.3112 13.536 95.6552 13.248 96.1192 13.248C96.6792 13.248 97.3352 13.464 98.0392 13.92L99.2312 11.616C98.2152 10.944 97.0472 10.608 95.9832 10.608C93.9992 10.608 92.7112 11.928 92.7112 13.608C92.7112 14.904 93.4872 15.768 95.0232 16.464C96.3432 17.064 96.7352 17.256 96.7352 17.784C96.7352 18.216 96.3432 18.528 95.8552 18.528C95.1272 18.528 94.3032 18.168 93.5512 17.592L92.1832 19.776C93.2792 20.616 94.5992 21.216 96.0312 21.216ZM105.543 21H109.551C112.863 21 114.807 19.224 114.807 16.392C114.807 13.584 112.887 11.76 109.551 11.76H106.983V7.56H103.671V11.76H102.639V14.376H103.671V21H105.543ZM106.983 18.384V14.376H108.783C110.311 14.376 111.135 15.024 111.135 16.392C111.135 17.76 110.311 18.384 108.783 18.384H106.983ZM115.673 18.384V21H124.217V18.384H121.529V15.12H124.217V12.504H121.529V10.176H124.217V7.56H115.673V18.384ZM134.536 21H137.848V7.56H135.4L131.944 12.768V7.56H128.632V21H130.744V14.664L134.536 21ZM149.241 21H152.553V7.56H150.105L146.649 12.768V7.56H143.337V21H145.449V14.664L149.241 21ZM154.099 18.384V21H162.643V18.384H159.955V15.12H162.643V12.504H159.955V10.176H162.643V7.56H154.099V18.384ZM171.338 21H176.042V18.384H172.57V7.56H169.258V18.384H168.026V21H171.338ZM187.777 21H191.089V7.56H187.777V21Z" fill="white"/>
</svg>
